<svg xmlns="http://www.w3.org/2000/svg" xmlns:xlink="http://www.w3.org/1999/xlink" width="42" height="42" viewBox="0 0 42 42">
    <defs>
        <path id="a" d="M8.25 12.965H6.68v1.57H8.25v-1.57zm0 2.75H6.68v1.57H8.25v-1.57zm0-5.5H6.68v1.57H8.25v-1.57zm-2.357 5.5H4.322v1.57h1.57v-1.57zm12.964-7.858H3.143V5.501c0-.435.352-.787.786-.787h1.57v1.179a.393.393 0 1 0 .787 0v-1.18h9.428v1.18a.392.392 0 1 0 .786 0v-1.18h1.571c.434 0 .786.353.786.788v2.356zm0 10.214a.786.786 0 0 1-.786.786H3.929a.786.786 0 0 1-.786-.786V8.643h15.714v9.428zM18.07 3.929h-1.57V2.75a.393.393 0 0 0-.787 0v1.179H6.286V2.75a.393.393 0 1 0-.786 0v1.179H3.929c-.868 0-1.572.703-1.572 1.572v12.57c0 .868.704 1.572 1.572 1.572H18.07c.868 0 1.572-.704 1.572-1.572V5.501c0-.869-.704-1.572-1.572-1.572zM5.893 10.214H4.322v1.572h1.57v-1.572zm0 2.75H4.322v1.572h1.57v-1.571zm4.714 2.75H9.035v1.572h1.572v-1.572zm0-5.5H9.035v1.572h1.572v-1.572zm0 2.75H9.035v1.572h1.572v-1.571zm7.071 0h-1.57v1.572h1.57v-1.571zm-2.357 0H13.75v1.572h1.571v-1.571zm2.357-2.75h-1.57v1.572h1.57v-1.572zm-2.357 0H13.75v1.572h1.571v-1.572zm-2.356 5.5h-1.572v1.572h1.572v-1.572zm0-5.5h-1.572v1.572h1.572v-1.572zm0 2.75h-1.572v1.572h1.572v-1.571z"/>
    </defs>
    <g fill="none" fill-rule="evenodd" transform="translate(1 1)">
        <circle cx="20" cy="20" r="20" stroke="#3C3C3B"/>
        <use fill="#202020" transform="translate(8.8 8.8)" xlink:href="#a"/>
    </g>
</svg>
