<svg xmlns="http://www.w3.org/2000/svg" xmlns:xlink="http://www.w3.org/1999/xlink" width="28" height="28" viewBox="0 0 28 28">
    <defs>
        <path id="a" d="M14 21.661a13.38 13.38 0 0 1-3.113-.371 1.075 1.075 0 0 0-.658.049L5.724 23.15l.735-3.142a1.101 1.101 0 0 0-.36-1.09c-1.939-1.644-3.008-3.79-3.008-6.04 0-4.842 4.894-8.781 10.909-8.781 6.015 0 10.909 3.94 10.909 8.781 0 4.842-4.894 8.782-10.909 8.782M14 3C7.372 3 2 7.423 2 12.88c0 2.675 1.298 5.1 3.397 6.878l-1.215 5.196 6.451-2.596c1.07.256 2.197.4 3.367.4 6.628 0 12-4.422 12-9.879C26 7.423 20.628 3 14 3"/>
    </defs>
    <g fill="none" fill-rule="evenodd">
        <mask id="b" fill="#fff">
            <use xlink:href="#a"/>
        </mask>
        <use fill="#3C3C3B" xlink:href="#a"/>
        <g fill="#3C3C3B" mask="url(#b)">
            <path d="M0 0h28v28H0z"/>
        </g>
    </g>
</svg>
