<svg xmlns="http://www.w3.org/2000/svg" width="28" height="28" viewBox="0 0 28 28">
    <path fill="none" fill-rule="evenodd" stroke="#3C3C3B" d="M25.783 10.211c.012.092.012.195.012.286 0 6.229-7.612 11.257-11.898 13.669-4.194-2.309-11.474-7.04-11.817-13.097a6.947 6.947 0 0 1 .606-4.046 7.009 7.009 0 0 1 4.48-3.76A6.713 6.713 0 0 1 9.052 3c1.805 0 3.543.697 4.845 1.931 1.795-1.691 4.469-2.342 6.835-1.645a7.067 7.067 0 0 1 4.674 4.445l.046.138c.228.685.343 1.417.343 2.182 0 .046 0 .092-.012.16"/>
</svg>
