<svg xmlns="http://www.w3.org/2000/svg" xmlns:xlink="http://www.w3.org/1999/xlink" width="28" height="28" viewBox="0 0 28 28">
    <defs>
        <path id="a" d="M14.055 14.378c-1.875 0-3.396-1.512-3.396-3.375a3.386 3.386 0 0 1 3.396-3.377 3.386 3.386 0 0 1 3.396 3.377c0 1.863-1.52 3.375-3.396 3.375m0-7.877c-2.501 0-4.527 2.016-4.527 4.502 0 2.484 2.026 4.5 4.527 4.5 2.501 0 4.528-2.016 4.528-4.5 0-2.486-2.027-4.502-4.528-4.502m0 18.567s-7.923-7.315-7.923-14.065c0-4.35 3.547-7.878 7.923-7.878 4.376 0 7.923 3.527 7.923 7.878 0 6.75-7.923 14.065-7.923 14.065m0-23.068C9.055 2 5 6.03 5 11.003c0 7.313 9.055 15.753 9.055 15.753s9.055-8.44 9.055-15.753C23.11 6.03 19.055 2 14.055 2"/>
    </defs>
    <g fill="none" fill-rule="evenodd">
        <mask id="b" fill="#fff">
            <use xlink:href="#a"/>
        </mask>
        <use fill="#202020" xlink:href="#a"/>
        <g fill="#C00" mask="url(#b)">
            <path d="M0 0h28v28H0z"/>
        </g>
    </g>
</svg>
